<svg xmlns="http://www.w3.org/2000/svg" width="102.005" height="90.497" viewBox="0 0 102.005 90.497"><g transform="translate(-855 -592)"><g transform="translate(886.926 592)" fill="rgba(255,255,255,0)"><path d="M 28.15422058105469 19 L 10 19 C 6.691590309143066 19 4.000000476837158 16.30841064453125 4.000000476837158 13 L 4.000000476837158 10 C 4.000000476837158 6.691589832305908 6.691590309143066 4 10 4 L 28.15422058105469 4 C 31.46263122558594 4 34.15422058105469 6.691589832305908 34.15422058105469 10 L 34.15422058105469 13 C 34.15422058105469 16.30841064453125 31.46263122558594 19 28.15422058105469 19 Z" stroke="none"/><path d="M 10.00000381469727 8 C 8.89720344543457 8 8.000003814697266 8.897199630737305 8.000003814697266 10 L 8.000003814697266 13 C 8.000003814697266 14.1028003692627 8.89720344543457 15 10.00000381469727 15 L 28.15421676635742 15 C 29.25701713562012 15 30.15421676635742 14.1028003692627 30.15421676635742 13 L 30.15421676635742 10 C 30.15421676635742 8.897199630737305 29.25701713562012 8 28.15421676635742 8 L 10.00000381469727 8 M 10.00000381469727 0 L 28.15421676635742 0 C 33.67707061767578 0 38.15421676635742 4.477146148681641 38.15421676635742 10 L 38.15421676635742 13 C 38.15421676635742 18.52285385131836 33.67707061767578 23 28.15421676635742 23 L 10.00000381469727 23 C 4.477149963378906 23 3.814697265625e-06 18.52285385131836 3.814697265625e-06 13 L 3.814697265625e-06 10 C 3.814697265625e-06 4.477146148681641 4.477149963378906 0 10.00000381469727 0 Z" stroke="none" fill="#ffe08d"/></g><g transform="translate(855 607)" fill="rgba(255,255,255,0)"><path d="M 92.00530242919922 71.49695587158203 L 10.00000476837158 71.49695587158203 C 6.691588401794434 71.49695587158203 4.00000524520874 68.80537414550781 4.00000524520874 65.49695587158203 L 4.00000524520874 10.00000762939453 C 4.00000524520874 6.691590785980225 6.691588401794434 4.000007629394531 10.00000476837158 4.000007629394531 L 92.00530242919922 4.000007629394531 C 95.313720703125 4.000007629394531 98.00530242919922 6.691590785980225 98.00530242919922 10.00000762939453 L 98.00530242919922 65.49695587158203 C 98.00530242919922 68.80537414550781 95.313720703125 71.49695587158203 92.00530242919922 71.49695587158203 Z" stroke="none"/><path d="M 92.00532531738281 67.49695587158203 C 93.10813140869141 67.49695587158203 94.00532531738281 66.59976959228516 94.00532531738281 65.49695587158203 L 94.00532531738281 9.999995231628418 C 94.00532531738281 8.897182464599609 93.10813140869141 7.99999475479126 92.00532531738281 7.99999475479126 L 10.00000953674316 7.99999475479126 C 8.897196769714355 7.99999475479126 8.000009536743164 8.897182464599609 8.000009536743164 9.999995231628418 L 8.000009536743164 65.49695587158203 C 8.000009536743164 66.59976959228516 8.897196769714355 67.49695587158203 10.00000953674316 67.49695587158203 L 92.00532531738281 67.49695587158203 M 92.00532531738281 75.49695587158203 L 10.00000953674316 75.49695587158203 C 4.477155208587646 75.49695587158203 9.1959636847605e-06 71.01980590820312 9.1959636847605e-06 65.49695587158203 L 9.1959636847605e-06 9.999995231628418 C 9.1959636847605e-06 4.477161407470703 4.477155208587646 -5.045572834205814e-06 10.00000953674316 -5.045572834205814e-06 L 92.00532531738281 -5.045572834205814e-06 C 97.52815246582031 -5.045572834205814e-06 102.0053253173828 4.477161407470703 102.0053253173828 9.999995231628418 L 102.0053253173828 65.49695587158203 C 102.0053253173828 71.01980590820312 97.52815246582031 75.49695587158203 92.00532531738281 75.49695587158203 Z" stroke="none" fill="#ffe08d"/></g><path d="M8.5,0A8.5,8.5,0,1,1,0,8.5,8.5,8.5,0,0,1,8.5,0Z" transform="translate(897.985 639.929)" fill="#ffe08d"/><path d="M0,0H102V10H0Z" transform="translate(855.005 639)" fill="#ffe08d"/></g></svg>