<?xml version="1.0" standalone="no"?>
<!DOCTYPE svg PUBLIC "-//W3C//DTD SVG 20010904//EN"
 "http://www.w3.org/TR/2001/REC-SVG-20010904/DTD/svg10.dtd">
<svg version="1.0" xmlns="http://www.w3.org/2000/svg"
 width="260.000000pt" height="260.000000pt" viewBox="0 0 260.000000 260.000000"
 preserveAspectRatio="xMidYMid meet">
<metadata>
Created by potrace 1.11, written by Peter Selinger 2001-2013
</metadata>
<g transform="translate(0.000000,260.000000) scale(0.100000,-0.100000)"
fill="#000000" stroke="none">
<path d="M0 1300 l0 -1300 1300 0 1300 0 0 1300 0 1300 -1300 0 -1300 0 0
-1300z m1563 770 c54 -37 77 -85 77 -163 l0 -65 218 -4 c248 -4 273 -10 320
-81 l27 -41 0 -551 0 -552 -28 -36 c-16 -21 -46 -46 -67 -57 -38 -19 -60 -20
-805 -20 -745 0 -767 1 -805 20 -21 11 -51 36 -67 57 l-28 36 0 552 0 551 27
41 c47 71 72 77 321 81 l217 4 0 66 c0 91 30 141 105 177 24 12 74 14 241 12
206 -2 211 -3 247 -27z"/>
<path d="M1121 1946 c-7 -8 -11 -34 -9 -58 l3 -43 190 0 190 0 3 43 c5 71 2
72 -193 72 -137 0 -175 -3 -184 -14z"/>
<path d="M552 1678 c-9 -9 -12 -69 -12 -210 l0 -198 765 0 765 0 0 198 c0 141
-3 201 -12 210 -17 17 -1489 17 -1506 0z"/>
<path d="M540 877 c0 -152 3 -216 12 -225 17 -17 1489 -17 1506 0 9 9 12 73
12 225 l0 213 -304 0 -303 0 -7 -31 c-9 -46 -67 -96 -119 -104 -72 -11 -145
33 -168 102 l-11 33 -309 0 -309 0 0 -213z"/>
</g>
</svg>
